0
SECTION
2
HEADER
9
$INSUNITS
70
4
9
$ACADVER
1
AC1014
9
$HANDSEED
5
FFFF
0
ENDSEC
0
SECTION
2
TABLES
0
TABLE
2
VPORT
5
8
100
AcDbSymbolTable
0
ENDTAB
0
TABLE
2
LTYPE
5
5
100
AcDbSymbolTable
0
LTYPE
5
14
100
AcDbSymbolTableRecord
100
AcDbLinetypeTableRecord
2
BYBLOCK
70
0
0
LTYPE
5
15
100
AcDbSymbolTableRecord
100
AcDbLinetypeTableRecord
2
BYLAYER
70
0
0
ENDTAB
0
TABLE
2
LAYER
5
2
100
AcDbSymbolTable
70
2
0
LAYER
5
50
100
AcDbSymbolTableRecord
100
AcDbLayerTableRecord
2
0
70
0
6
CONTINUOUS
0
ENDTAB
0
TABLE
2
STYLE
5
3
100
AcDbSymbolTable
70
1
0
STYLE
5
11
100
AcDbSymbolTableRecord
100
AcDbTextStyleTableRecord
2
STANDARD
70
0
0
ENDTAB
0
TABLE
2
VIEW
5
6
100
AcDbSymbolTable
70
0
0
ENDTAB
0
TABLE
2
UCS
5
7
100
AcDbSymbolTable
70
0
0
ENDTAB
0
TABLE
2
APPID
5
9
100
AcDbSymbolTable
70
2
0
APPID
5
12
100
AcDbSymbolTableRecord
100
AcDbRegAppTableRecord
2
ACAD
70
0
0
ENDTAB
0
TABLE
2
DIMSTYLE
5
A
100
AcDbSymbolTable
70
1
0
ENDTAB
0
TABLE
2
BLOCK_RECORD
5
1
100
AcDbSymbolTable
70
1
0
BLOCK_RECORD
5
1F
100
AcDbSymbolTableRecord
100
AcDbBlockTableRecord
2
*MODEL_SPACE
0
BLOCK_RECORD
5
1B
100
AcDbSymbolTableRecord
100
AcDbBlockTableRecord
2
*PAPER_SPACE
0
ENDTAB
0
ENDSEC
0
SECTION
2
BLOCKS
0
BLOCK
5
20
100
AcDbEntity
100
AcDbBlockBegin
2
*MODEL_SPACE
0
ENDBLK
5
21
100
AcDbEntity
100
AcDbBlockEnd
0
BLOCK
5
1C
100
AcDbEntity
100
AcDbBlockBegin
2
*PAPER_SPACE
0
ENDBLK
5
1D
100
AcDbEntity
100
AcDbBlockEnd
0
ENDSEC
0
SECTION
2
ENTITIES
0
LWPOLYLINE
5
100
100
AcDbEntity
8
0
100
AcDbPolyline
90
4
70
1
43
0.0
10
19.60191614635238
20
7.4123828288985383
10
5.6019161463523748
20
7.4123828288985383
10
5.6019161463523748
20
21.412382828898544
10
19.60191614635238
20
21.412382828898544
0
LINE
5
101
100
AcDbEntity
8
0
100
AcDbLine
10
19.60191614635238
20
7.4123828288985383
30
0
11
5.6019161463523748
21
21.412382828898544
31
0
0
LINE
5
102
100
AcDbEntity
8
0
100
AcDbLine
10
5.6019161463523748
20
7.4123828288985383
30
0
11
19.60191614635238
21
21.412382828898544
31
0
0
LWPOLYLINE
5
103
100
AcDbEntity
8
0
100
AcDbPolyline
90
4
70
1
43
0.0
10
19.60191614635238
20
-11.587617171101519
10
5.6019161463523792
20
-11.587617171101519
10
5.6019161463523792
20
2.412382828898485
10
19.60191614635238
20
2.412382828898485
0
LINE
5
104
100
AcDbEntity
8
0
100
AcDbLine
10
19.60191614635238
20
-11.587617171101519
30
0
11
5.6019161463523792
21
2.412382828898485
31
0
0
LINE
5
105
100
AcDbEntity
8
0
100
AcDbLine
10
5.6019161463523792
20
-11.587617171101519
30
0
11
19.60191614635238
21
2.412382828898485
31
0
0
LWPOLYLINE
5
106
100
AcDbEntity
8
0
100
AcDbPolyline
90
4
70
1
43
0.0
10
19.601916146352359
20
-30.587617171101485
10
5.601916146352357
20
-30.587617171101485
10
5.601916146352357
20
-16.587617171101485
10
19.601916146352359
20
-16.587617171101485
0
LINE
5
107
100
AcDbEntity
8
0
100
AcDbLine
10
19.601916146352359
20
-30.587617171101485
30
0
11
5.601916146352357
21
-16.587617171101485
31
0
0
LINE
5
108
100
AcDbEntity
8
0
100
AcDbLine
10
5.601916146352357
20
-30.587617171101485
30
0
11
19.601916146352359
21
-16.587617171101485
31
0
0
LWPOLYLINE
5
109
100
AcDbEntity
8
0
100
AcDbPolyline
90
4
70
1
43
0.0
10
38.601916146352373
20
19.412382828898483
10
24.601916146352369
20
19.412382828898483
10
24.601916146352369
20
33.412382828898487
10
38.601916146352373
20
33.412382828898487
0
LINE
5
110
100
AcDbEntity
8
0
100
AcDbLine
10
38.601916146352373
20
19.412382828898483
30
0
11
24.601916146352369
21
33.412382828898487
31
0
0
LINE
5
111
100
AcDbEntity
8
0
100
AcDbLine
10
24.601916146352369
20
19.412382828898483
30
0
11
38.601916146352373
21
33.412382828898487
31
0
0
LWPOLYLINE
5
112
100
AcDbEntity
8
0
100
AcDbPolyline
90
4
70
1
43
0.0
10
38.601916146352345
20
0.41238282889852318
10
24.601916146352337
20
0.41238282889852318
10
24.601916146352337
20
14.412382828898526
10
38.601916146352345
20
14.412382828898526
0
LINE
5
113
100
AcDbEntity
8
0
100
AcDbLine
10
38.601916146352345
20
0.41238282889852318
30
0
11
24.601916146352337
21
14.412382828898526
31
0
0
LINE
5
114
100
AcDbEntity
8
0
100
AcDbLine
10
24.601916146352337
20
0.41238282889852318
30
0
11
38.601916146352345
21
14.412382828898526
31
0
0
LWPOLYLINE
5
115
100
AcDbEntity
8
0
100
AcDbPolyline
90
4
70
1
43
0.0
10
38.601916146352352
20
-18.587617171101485
10
24.601916146352348
20
-18.587617171101485
10
24.601916146352348
20
-4.5876171711014813
10
38.601916146352352
20
-4.5876171711014813
0
LINE
5
116
100
AcDbEntity
8
0
100
AcDbLine
10
38.601916146352352
20
-18.587617171101485
30
0
11
24.601916146352348
21
-4.5876171711014813
31
0
0
LINE
5
117
100
AcDbEntity
8
0
100
AcDbLine
10
24.601916146352348
20
-18.587617171101485
30
0
11
38.601916146352352
21
-4.5876171711014813
31
0
0
LWPOLYLINE
5
118
100
AcDbEntity
8
0
100
AcDbPolyline
90
4
70
1
43
0.0
10
57.601916146352316
20
25.412382828898519
10
43.601916146352309
20
25.412382828898519
10
43.601916146352309
20
39.412382828898515
10
57.601916146352316
20
39.412382828898515
0
LINE
5
119
100
AcDbEntity
8
0
100
AcDbLine
10
57.601916146352316
20
25.412382828898519
30
0
11
43.601916146352309
21
39.412382828898515
31
0
0
LINE
5
120
100
AcDbEntity
8
0
100
AcDbLine
10
43.601916146352309
20
25.412382828898519
30
0
11
57.601916146352316
21
39.412382828898515
31
0
0
LWPOLYLINE
5
121
100
AcDbEntity
8
0
100
AcDbPolyline
90
4
70
1
43
0.0
10
57.601916146352366
20
6.4123828288984752
10
43.601916146352366
20
6.4123828288984752
10
43.601916146352366
20
20.41238282889848
10
57.601916146352366
20
20.41238282889848
0
LINE
5
122
100
AcDbEntity
8
0
100
AcDbLine
10
57.601916146352366
20
6.4123828288984752
30
0
11
43.601916146352366
21
20.41238282889848
31
0
0
LINE
5
123
100
AcDbEntity
8
0
100
AcDbLine
10
43.601916146352366
20
6.4123828288984752
30
0
11
57.601916146352366
21
20.41238282889848
31
0
0
LWPOLYLINE
5
124
100
AcDbEntity
8
0
100
AcDbPolyline
90
4
70
1
43
0.0
10
57.60191614635233
20
-12.587617171101497
10
43.60191614635233
20
-12.587617171101497
10
43.60191614635233
20
1.4123828288985063
10
57.60191614635233
20
1.4123828288985063
0
LINE
5
125
100
AcDbEntity
8
0
100
AcDbLine
10
57.60191614635233
20
-12.587617171101497
30
0
11
43.60191614635233
21
1.4123828288985063
31
0
0
LINE
5
126
100
AcDbEntity
8
0
100
AcDbLine
10
43.60191614635233
20
-12.587617171101497
30
0
11
57.60191614635233
21
1.4123828288985063
31
0
0
LWPOLYLINE
5
127
100
AcDbEntity
8
0
100
AcDbPolyline
90
4
70
1
43
0.0
10
76.601916146352295
20
18.912382828898515
10
62.601916146352295
20
18.912382828898515
10
62.601916146352295
20
32.912382828898515
10
76.601916146352295
20
32.912382828898515
0
LINE
5
128
100
AcDbEntity
8
0
100
AcDbLine
10
76.601916146352295
20
18.912382828898515
30
0
11
62.601916146352295
21
32.912382828898515
31
0
0
LINE
5
129
100
AcDbEntity
8
0
100
AcDbLine
10
62.601916146352295
20
18.912382828898515
30
0
11
76.601916146352295
21
32.912382828898515
31
0
0
LWPOLYLINE
5
130
100
AcDbEntity
8
0
100
AcDbPolyline
90
4
70
1
43
0.0
10
76.601916146352337
20
-0.087617171101515012
10
62.60191614635233
20
-0.087617171101515012
10
62.60191614635233
20
13.912382828898489
10
76.601916146352337
20
13.912382828898489
0
LINE
5
131
100
AcDbEntity
8
0
100
AcDbLine
10
76.601916146352337
20
-0.087617171101515012
30
0
11
62.60191614635233
21
13.912382828898489
31
0
0
LINE
5
132
100
AcDbEntity
8
0
100
AcDbLine
10
62.60191614635233
20
-0.087617171101515012
30
0
11
76.601916146352337
21
13.912382828898489
31
0
0
LWPOLYLINE
5
133
100
AcDbEntity
8
0
100
AcDbPolyline
90
4
70
1
43
0.0
10
76.601916146352309
20
-19.087617171101481
10
62.601916146352323
20
-19.087617171101481
10
62.601916146352323
20
-5.0876171711014813
10
76.601916146352309
20
-5.0876171711014813
0
LINE
5
134
100
AcDbEntity
8
0
100
AcDbLine
10
76.601916146352309
20
-19.087617171101481
30
0
11
62.601916146352323
21
-5.0876171711014813
31
0
0
LINE
5
135
100
AcDbEntity
8
0
100
AcDbLine
10
62.601916146352323
20
-19.087617171101481
30
0
11
76.601916146352309
21
-5.0876171711014813
31
0
0
LWPOLYLINE
5
136
100
AcDbEntity
8
0
100
AcDbPolyline
90
4
70
1
43
0.0
10
95.601916146352295
20
16.412382828898508
10
81.601916146352309
20
16.412382828898508
10
81.601916146352309
20
30.412382828898508
10
95.601916146352295
20
30.412382828898508
0
LINE
5
137
100
AcDbEntity
8
0
100
AcDbLine
10
95.601916146352295
20
16.412382828898508
30
0
11
81.601916146352309
21
30.412382828898508
31
0
0
LINE
5
138
100
AcDbEntity
8
0
100
AcDbLine
10
81.601916146352309
20
16.412382828898508
30
0
11
95.601916146352295
21
30.412382828898508
31
0
0
LWPOLYLINE
5
139
100
AcDbEntity
8
0
100
AcDbPolyline
90
4
70
1
43
0.0
10
95.601916146352323
20
-2.5876171711015239
10
81.601916146352352
20
-2.5876171711015239
10
81.601916146352352
20
11.41238282889848
10
95.601916146352323
20
11.41238282889848
0
LINE
5
140
100
AcDbEntity
8
0
100
AcDbLine
10
95.601916146352323
20
-2.5876171711015239
30
0
11
81.601916146352352
21
11.41238282889848
31
0
0
LINE
5
141
100
AcDbEntity
8
0
100
AcDbLine
10
81.601916146352352
20
-2.5876171711015239
30
0
11
95.601916146352323
21
11.41238282889848
31
0
0
LWPOLYLINE
5
142
100
AcDbEntity
8
0
100
AcDbPolyline
90
4
70
1
43
0.0
10
95.601916146352295
20
-21.587617171101495
10
81.601916146352309
20
-21.587617171101495
10
81.601916146352309
20
-7.5876171711014928
10
95.601916146352295
20
-7.5876171711014928
0
LINE
5
143
100
AcDbEntity
8
0
100
AcDbLine
10
95.601916146352295
20
-21.587617171101495
30
0
11
81.601916146352309
21
-7.5876171711014928
31
0
0
LINE
5
144
100
AcDbEntity
8
0
100
AcDbLine
10
81.601916146352309
20
-21.587617171101495
30
0
11
95.601916146352295
21
-7.5876171711014928
31
0
0
LWPOLYLINE
5
145
100
AcDbEntity
8
0
100
AcDbPolyline
90
36
70
1
43
0.0
10
21.601916146352352
20
-21.087617171101485
10
21.601916146352352
20
-32.087617171101485
42
-0.41421356237309509
10
21.101916146352355
20
-32.587617171101478
10
4.1019161463523668
20
-32.587617171101478
42
-0.41421356237309692
10
3.6019161463523659
20
-32.087617171101485
10
3.6019161463523646
20
22.912382828898519
42
-0.41421356237309637
10
4.101916146352365
20
23.412382828898515
10
22.101916146352352
20
23.412382828898526
42
0.41421356237309509
10
22.601916146352352
20
23.912382828898522
10
22.601916146352352
20
34.912382828898508
42
-0.41421356237309509
10
23.101916146352348
20
35.412382828898508
10
41.101916146352337
20
35.412382828898515
42
0.41421356237309759
10
41.601916146352323
20
35.912382828898515
10
41.601916146352337
20
40.912382828898508
42
-0.41421356237310542
10
42.101916146352337
20
41.412382828898508
10
59.101916146352323
20
41.412382828898515
42
-0.41421356237309509
10
59.601916146352323
20
40.912382828898515
10
59.601916146352323
20
35.412382828898494
42
0.41421356237309759
10
60.101916146352323
20
34.912382828898494
10
78.101916146352309
20
34.912382828898515
42
-0.41421356237309759
10
78.601916146352295
20
34.412382828898515
10
78.601916146352323
20
32.912382828898494
42
0.41421356237309759
10
79.101916146352309
20
32.412382828898501
10
120.10191614635229
20
32.412382828898515
42
-0.41421356237308726
10
120.60191614635229
20
31.912382828898519
10
120.60191614635229
20
-26.449232787857792
42
-0.13165249758740155
10
120.5349288482445
20
-26.699232787857806
10
104.47597681585674
20
-54.514153624264942
42
-0.41421356237309243
10
103.7929641139645
20
-54.697166326157159
10
96.431748181796749
20
-50.447166326157173
42
0.13165249758739664
10
60.101916146352323
20
-40.712617171101485
10
51.405008397268531
20
-40.712617171101506
42
-0.2794269787682046
10
50.961715974185815
20
-40.443900174449034
10
40.742116318518868
20
-20.856334167753975
42
0.27942697876822681
10
40.298823895436144
20
-20.587617171101485
10
22.101916146352352
20
-20.587617171101485
42
0.41421356237309509
0
LWPOLYLINE
5
146
100
AcDbEntity
8
0
100
AcDbPolyline
90
4
70
1
43
0.0
10
67.101916146352323
20
-38.712617171101485
10
53.10191614635233
20
-38.712617171101485
10
53.10191614635233
20
-24.712617171101485
10
67.101916146352323
20
-24.712617171101485
0
LINE
5
147
100
AcDbEntity
8
0
100
AcDbLine
10
67.101916146352323
20
-38.712617171101485
30
0
11
53.10191614635233
21
-24.712617171101485
31
0
0
LINE
5
148
100
AcDbEntity
8
0
100
AcDbLine
10
53.10191614635233
20
-38.712617171101485
30
0
11
67.101916146352323
21
-24.712617171101485
31
0
0
LWPOLYLINE
5
149
100
AcDbEntity
8
0
100
AcDbPolyline
90
4
70
1
43
0.0
10
86.186739892878208
20
-43.068316849570401
10
72.66377832483127
20
-39.444850218135123
10
76.287244956266562
20
-25.921888650088142
10
89.810206524313514
20
-29.545355281523442
0
LINE
5
150
100
AcDbEntity
8
0
100
AcDbLine
10
86.186739892878208
20
-43.068316849570401
30
0
11
76.287244956266562
21
-25.921888650088142
31
0
0
LINE
5
151
100
AcDbEntity
8
0
100
AcDbLine
10
72.66377832483127
20
-39.444850218135123
30
0
11
89.810206524313514
21
-29.545355281523442
31
0
0
LWPOLYLINE
5
152
100
AcDbEntity
8
0
100
AcDbPolyline
90
4
70
1
43
0.0
10
103.49392600828779
20
-52.215115518588284
10
91.36957035530564
20
-45.215115518588284
10
98.369570355305669
20
-33.090759865606138
10
110.49392600828781
20
-40.090759865606131
0
LINE
5
153
100
AcDbEntity
8
0
100
AcDbLine
10
103.49392600828779
20
-52.215115518588284
30
0
11
98.369570355305669
21
-33.090759865606138
31
0
0
LINE
5
154
100
AcDbEntity
8
0
100
AcDbLine
10
91.36957035530564
20
-45.215115518588284
30
0
11
110.49392600828781
21
-40.090759865606131
31
0
0
LWPOLYLINE
5
155
100
AcDbEntity
8
0
100
AcDbPolyline
90
4
70
1
43
0.0
10
118.60191614635229
20
-27.587617171101488
10
99.601916146352323
20
-27.587617171101488
10
99.601916146352323
20
4.4123828288985223
10
118.60191614635229
20
4.4123828288985223
0
LINE
5
156
100
AcDbEntity
8
0
100
AcDbLine
10
118.60191614635229
20
-27.587617171101488
30
0
11
99.601916146352323
21
4.4123828288985223
31
0
0
LINE
5
157
100
AcDbEntity
8
0
100
AcDbLine
10
99.601916146352323
20
-27.587617171101488
30
0
11
118.60191614635229
21
4.4123828288985223
31
0
0
LWPOLYLINE
5
158
100
AcDbEntity
8
0
100
AcDbPolyline
90
4
70
1
43
0.0
10
117.85191614635229
20
11.412382828898515
10
100.35191614635229
20
11.412382828898515
10
100.35191614635229
20
32.412382828898515
10
117.85191614635229
20
32.412382828898515
0
LINE
5
159
100
AcDbEntity
8
0
100
AcDbLine
10
117.85191614635229
20
11.412382828898515
30
0
11
100.35191614635229
21
32.412382828898515
31
0
0
LINE
5
160
100
AcDbEntity
8
0
100
AcDbLine
10
100.35191614635229
20
11.412382828898515
30
0
11
117.85191614635229
21
32.412382828898515
31
0
0
LWPOLYLINE
5
161
100
AcDbEntity
8
0
100
AcDbPolyline
90
24
70
1
43
0.0
10
37.999999999999993
20
151.16729195664348
10
37.999999999999993
20
155.91729195664348
10
56.999999999999993
20
155.91729195664345
10
56.999999999999972
20
158.29229195664342
10
75.999999999999972
20
158.29229195664345
10
75.999999999999972
20
155.91729195664342
10
94.999999999999972
20
155.91729195664348
10
94.999999999999972
20
153.54229195664345
10
113.99999999999997
20
153.54229195664362
10
136.99999999999997
20
153.54229195664354
10
136.99999999999994
20
93.912997047762559
10
129.80707337139663
20
81.454482671904287
10
113.35259069949231
20
90.954482671904316
10
103.85259069949235
20
74.499999999999972
10
108.77015255644028
20
92.852590699491842
10
90.417561856948069
20
97.770152556440152
10
85.500000000000099
20
79.417561856947856
10
66.500000000000071
20
79.417561856947856
10
76.000000000000099
20
79.417561856947842
42
-0.13165249758739564
10
112.07983203544451
20
69.749999999999972
10
120.30707337139665
20
64.999999999999986
10
0
20
65
10
0
20
94.16729195664351
10
-9.9920072216264089e-15
20
151.16729195664348
0
LWPOLYLINE
5
162
100
AcDbEntity
8
0
100
AcDbPolyline
90
18
70
1
43
0.0
10
76
20
101.29229195664385
10
56.999999999999993
20
101.29229195664385
10
57
20
98.917291956643837
10
38
20
98.917291956643709
10
38.000000000000036
20
94.167291956643709
10
57.984239356466283
20
94.167291956643808
10
66.500000000000071
20
79.417561856947856
10
66.500000000000071
20
98.417561856947856
10
85.500000000000085
20
98.417561856947856
10
85.500000000000099
20
79.417561856947856
10
103.85259069949235
20
74.499999999999972
10
120.30707337139665
20
64.999999999999986
10
129.80707337139663
20
81.454482671904287
10
114.00000000000006
20
90.580700737980294
10
114.00000000000006
20
96.542291956643595
10
95.000000000000057
20
96.54229195664368
10
95.000000000000057
20
98.91729195664368
10
76.000000000000071
20
98.917291956643837
0
LINE
5
163
100
AcDbEntity
8
0
100
AcDbLine
10
113.99999999999997
20
153.54229195664362
30
0
11
114.00000000000006
21
96.542291956643595
31
0
0
LWPOLYLINE
5
164
100
AcDbEntity
8
0
100
AcDbPolyline
90
4
70
1
43
0.0
10
134.25000000000014
20
132.04229195664365
10
116.75000000000013
20
132.04229195664357
10
116.75000000000013
20
153.04229195664354
10
134.25000000000014
20
153.04229195664354
0
LWPOLYLINE
5
165
100
AcDbEntity
8
0
100
AcDbPolyline
90
4
70
1
43
0.0
10
135.00000000000244
20
93.042291956643624
10
116.00000000000243
20
93.042291956643624
10
116.00000000000243
20
125.04229195664362
10
135.00000000000242
20
125.04229195664362
0
LINE
5
166
100
AcDbEntity
8
0
100
AcDbLine
10
125.5000000000024
20
125.04229195664362
30
0
11
125.50000000000013
21
132.04229195664362
31
0
0
CIRCLE
5
167
100
AcDbEntity
8
0
100
AcDbCircle
10
116.50000000000173
20
128.54229195664362
30
0
40
2.5000000000000044
210
0
220
0
230
1
0
CIRCLE
5
168
100
AcDbEntity
8
0
100
AcDbCircle
10
134.49999999999997
20
128.54229195664362
30
0
40
2.499999999999996
210
0
220
0
230
1
0
CIRCLE
5
169
100
AcDbEntity
8
0
100
AcDbCircle
10
128.89200986193561
20
84.869546181365394
30
0
40
2.4999999999999964
210
0
220
0
230
1
0
LINE
5
170
100
AcDbEntity
8
0
100
AcDbLine
10
-9.9920072216264089e-15
20
151.16729195664348
30
0
11
9.4999999999999893
21
151.16729195664348
31
0
0
LINE
5
171
100
AcDbEntity
8
0
100
AcDbLine
10
134.49999999999997
20
128.54229195664362
30
0
11
116.50000000000173
21
128.54229195664362
31
0
0
LINE
5
172
100
AcDbEntity
8
0
100
AcDbLine
10
125.50000000000013
20
153.04229195664354
30
0
11
125.49999999999997
21
153.54229195664354
31
0
0
CIRCLE
5
173
100
AcDbEntity
8
0
100
AcDbCircle
10
18.999999999999982
20
113.16729195664348
30
0
40
2.5
210
0
220
0
230
1
0
CIRCLE
5
174
100
AcDbEntity
8
0
100
AcDbCircle
10
111.18215154224686
20
92.195125192816576
30
0
40
2.5000000000000022
210
0
220
0
230
1
0
LINE
5
175
100
AcDbEntity
8
0
100
AcDbLine
10
97.399999999999963
20
136.9422919566436
30
0
11
92.59999999999998
21
134.51729195664348
31
0
0
CIRCLE
5
176
100
AcDbEntity
8
0
100
AcDbCircle
10
95
20
135.72979195664357
30
0
40
2.500000000000004
210
0
220
0
230
1
0
LWPOLYLINE
5
177
100
AcDbEntity
8
0
100
AcDbPolyline
90
3
70
1
43
0.0
10
90.8898732604043
20
94.123658083913554
10
103.38027929603642
20
78.146494472526115
10
106.53787164628723
20
89.930789553252737
0
LINE
5
178
100
AcDbEntity
8
0
100
AcDbLine
10
103.38027929603642
20
78.146494472526115
30
0
11
87.732280910153534
21
82.339363003186961
31
0
0
LWPOLYLINE
5
179
100
AcDbEntity
8
0
100
AcDbPolyline
90
3
70
1
43
0.0
10
73.600000000000023
20
122.6922919566435
10
59.399999999999991
20
122.6922919566435
10
73.600000000000023
20
136.8922919566435
0
LWPOLYLINE
5
180
100
AcDbEntity
8
0
100
AcDbPolyline
90
3
70
1
43
0.0
10
96.400000000000006
20
118.9422919566436
10
96.400000000000006
20
131.14229195664359
10
112.59999999999998
20
118.9422919566436
0
LWPOLYLINE
5
181
100
AcDbEntity
8
0
100
AcDbPolyline
90
4
70
1
43
0.0
10
54.600000000000009
20
115.5172919566435
10
54.600000000000009
20
101.31729195664352
10
40.399999999999999
20
115.5172919566435
10
40.399999999999999
20
101.31729195664352
0
LINE
5
182
100
AcDbEntity
8
0
100
AcDbLine
10
54.600000000000009
20
153.5172919566435
30
0
11
54.59999999999998
21
139.31729195664349
31
0
0
LWPOLYLINE
5
183
100
AcDbEntity
8
0
100
AcDbPolyline
90
3
70
1
43
0.0
10
105.83076486510065
20
91.155534424644301
10
102.15553442464486
20
77.439387691339533
10
92.114618131795879
20
94.830764865100079
0
LWPOLYLINE
5
184
100
AcDbEntity
8
0
100
AcDbPolyline
90
3
70
1
43
0.0
10
93.59999999999998
20
114.51729195664349
10
77.399999999999977
20
102.31729195664346
10
77.399999999999977
20
114.51729195664349
0
LWPOLYLINE
5
185
100
AcDbEntity
8
0
100
AcDbPolyline
90
3
70
1
43
0.0
10
78.399999999999977
20
115.5172919566435
10
92.599999999999994
20
101.31729195664349
10
92.600000000000037
20
115.5172919566435
0
LWPOLYLINE
5
186
100
AcDbEntity
8
0
100
AcDbPolyline
90
3
70
1
43
0.0
10
40.399999999999999
20
120.31729195664352
10
40.399999999999999
20
134.51729195664348
10
54.600000000000009
20
120.31729195664352
0
LWPOLYLINE
5
187
100
AcDbEntity
8
0
100
AcDbPolyline
90
4
70
1
43
0.0
10
74.600000000000023
20
123.69229195664349
10
58.40000000000002
20
123.69229195664349
10
58.40000000000002
20
135.89229195664348
10
74.600000000000023
20
135.89229195664348
0
LWPOLYLINE
5
188
100
AcDbEntity
8
0
100
AcDbPolyline
90
3
70
1
43
0.0
10
39.399999999999999
20
133.5172919566435
10
55.600000000000016
20
121.31729195664352
10
39.399999999999999
20
121.31729195664352
0
LINE
5
189
100
AcDbEntity
8
0
100
AcDbLine
10
78.399999999999977
20
101.31729195664349
30
0
11
78.399999999999977
21
115.5172919566435
31
0
0
LWPOLYLINE
5
190
100
AcDbEntity
8
0
100
AcDbPolyline
90
3
70
1
43
0.0
10
39.39999999999997
20
152.5172919566435
10
55.59999999999998
20
140.31729195664352
10
39.39999999999997
20
140.31729195664352
0
LINE
5
191
100
AcDbEntity
8
0
100
AcDbLine
10
93.59999999999998
20
102.31729195664346
30
0
11
77.399999999999977
21
102.31729195664346
31
0
0
LINE
5
192
100
AcDbEntity
8
0
100
AcDbLine
10
93.59999999999998
20
152.5172919566435
30
0
11
93.59999999999998
21
140.31729195664352
31
0
0
LWPOLYLINE
5
193
100
AcDbEntity
8
0
100
AcDbPolyline
90
4
70
1
43
0.0
10
97.40000000000002
20
132.14229195664359
10
111.59999999999998
20
117.9422919566436
10
111.59999999999998
20
132.14229195664359
10
97.40000000000002
20
117.9422919566436
0
LINE
5
194
100
AcDbEntity
8
0
100
AcDbLine
10
59.400000000000013
20
136.8922919566435
30
0
11
73.600000000000023
21
136.8922919566435
31
0
0
LWPOLYLINE
5
195
100
AcDbEntity
8
0
100
AcDbPolyline
90
3
70
1
43
0.0
10
39.400000000000013
20
114.51729195664349
10
55.600000000000016
20
102.31729195664349
10
55.600000000000023
20
114.51729195664349
0
LINE
5
196
100
AcDbEntity
8
0
100
AcDbLine
10
112.59999999999998
20
131.14229195664359
30
0
11
96.400000000000006
21
118.9422919566436
31
0
0
LWPOLYLINE
5
197
100
AcDbEntity
8
0
100
AcDbPolyline
90
3
70
1
43
0.0
10
40.399999999999984
20
153.5172919566435
10
54.59999999999998
20
139.31729195664349
10
40.399999999999991
20
139.31729195664354
0
LINE
5
198
100
AcDbEntity
8
0
100
AcDbLine
10
106.53787164628723
20
89.930789553252737
30
0
11
87.732280910153534
21
82.339363003186961
31
0
0
LINE
5
199
100
AcDbEntity
8
0
100
AcDbLine
10
39.400000000000013
20
102.3172919566435
30
0
11
39.400000000000013
21
114.51729195664349
31
0
0
LWPOLYLINE
5
200
100
AcDbEntity
8
0
100
AcDbPolyline
90
4
70
1
43
0.0
10
92.599999999999966
20
153.5172919566435
10
78.399999999999977
20
139.31729195664349
10
78.399999999999949
20
153.5172919566435
10
92.599999999999966
20
139.31729195664349
0
LINE
5
201
100
AcDbEntity
8
0
100
AcDbLine
10
39.39999999999997
20
152.5172919566435
30
0
11
55.59999999999998
21
152.5172919566435
31
0
0
LINE
5
202
100
AcDbEntity
8
0
100
AcDbLine
10
92.599999999999994
20
101.31729195664349
30
0
11
78.399999999999977
21
101.31729195664349
31
0
0
LWPOLYLINE
5
203
100
AcDbEntity
8
0
100
AcDbPolyline
90
4
70
1
43
0.0
10
58.399999999999999
20
116.89229195664348
10
74.59999999999998
20
116.8922919566435
10
58.399999999999999
20
104.69229195664349
10
74.59999999999998
20
104.69229195664349
0
LWPOLYLINE
5
204
100
AcDbEntity
8
0
100
AcDbPolyline
90
3
70
1
43
0.0
10
77.399999999999977
20
140.31729195664352
10
77.399999999999977
20
152.51729195664356
10
93.59999999999998
20
152.5172919566435
0
LINE
5
205
100
AcDbEntity
8
0
100
AcDbLine
10
55.600000000000016
20
133.5172919566435
30
0
11
55.600000000000016
21
121.31729195664352
31
0
0
LWPOLYLINE
5
206
100
AcDbEntity
8
0
100
AcDbPolyline
90
3
70
1
43
0.0
10
74.59999999999998
20
154.89229195664353
10
58.399999999999991
20
142.69229195664354
10
74.59999999999998
20
142.69229195664354
0
LWPOLYLINE
5
207
100
AcDbEntity
8
0
100
AcDbPolyline
90
4
70
1
43
0.0
10
59.399999999999984
20
141.69229195664349
10
59.399999999999984
20
155.8922919566435
10
73.59999999999998
20
155.8922919566435
10
73.599999999999966
20
141.69229195664349
0
LINE
5
208
100
AcDbEntity
8
0
100
AcDbLine
10
55.600000000000016
20
102.31729195664349
30
0
11
39.400000000000013
21
102.3172919566435
31
0
0
LINE
5
209
100
AcDbEntity
8
0
100
AcDbLine
10
77.399999999999977
20
152.51729195664356
30
0
11
93.59999999999998
21
140.31729195664352
31
0
0
LINE
5
210
100
AcDbEntity
8
0
100
AcDbLine
10
58.399999999999991
20
142.69229195664354
30
0
11
58.399999999999991
21
154.89229195664356
31
0
0
LINE
5
211
100
AcDbEntity
8
0
100
AcDbLine
10
102.15553442464486
20
77.439387691339533
30
0
11
88.439387691340059
21
81.114618131795297
31
0
0
LINE
5
212
100
AcDbEntity
8
0
100
AcDbLine
10
55.59999999999998
20
152.5172919566435
30
0
11
55.59999999999998
21
140.31729195664352
31
0
0
LINE
5
213
100
AcDbEntity
8
0
100
AcDbLine
10
105.83076486510065
20
91.155534424644301
30
0
11
88.439387691340059
21
81.114618131795297
31
0
0
LINE
5
214
100
AcDbEntity
8
0
100
AcDbLine
10
58.40000000000002
20
135.89229195664348
30
0
11
74.600000000000023
21
123.69229195664349
31
0
0
LINE
5
215
100
AcDbEntity
8
0
100
AcDbLine
10
40.399999999999984
20
153.5172919566435
30
0
11
54.600000000000009
21
153.5172919566435
31
0
0
LINE
5
216
100
AcDbEntity
8
0
100
AcDbLine
10
92.600000000000037
20
115.5172919566435
30
0
11
78.399999999999977
21
101.31729195664349
31
0
0
LINE
5
217
100
AcDbEntity
8
0
100
AcDbLine
10
59.400000000000013
20
136.8922919566435
30
0
11
73.600000000000023
21
122.6922919566435
31
0
0
LINE
5
218
100
AcDbEntity
8
0
100
AcDbLine
10
73.59999999999998
20
155.8922919566435
30
0
11
59.399999999999984
21
141.69229195664349
31
0
0
LINE
5
219
100
AcDbEntity
8
0
100
AcDbLine
10
112.59999999999998
20
131.14229195664359
30
0
11
112.59999999999998
21
118.9422919566436
31
0
0
LINE
5
220
100
AcDbEntity
8
0
100
AcDbLine
10
54.600000000000009
20
134.51729195664348
30
0
11
40.399999999999999
21
120.31729195664352
31
0
0
LINE
5
221
100
AcDbEntity
8
0
100
AcDbLine
10
40.399999999999999
20
115.5172919566435
30
0
11
54.600000000000009
21
115.5172919566435
31
0
0
LINE
5
222
100
AcDbEntity
8
0
100
AcDbLine
10
58.399999999999991
20
154.89229195664356
30
0
11
74.59999999999998
21
142.69229195664354
31
0
0
LINE
5
223
100
AcDbEntity
8
0
100
AcDbLine
10
40.399999999999999
20
134.51729195664348
30
0
11
54.600000000000009
21
134.51729195664348
31
0
0
LINE
5
224
100
AcDbEntity
8
0
100
AcDbLine
10
58.399999999999991
20
154.89229195664356
30
0
11
74.59999999999998
21
154.89229195664353
31
0
0
LINE
5
225
100
AcDbEntity
8
0
100
AcDbLine
10
59.399999999999991
20
122.6922919566435
30
0
11
59.400000000000013
21
136.8922919566435
31
0
0
LINE
5
226
100
AcDbEntity
8
0
100
AcDbLine
10
96.400000000000006
20
131.14229195664359
30
0
11
112.59999999999998
21
131.14229195664359
31
0
0
LINE
5
227
100
AcDbEntity
8
0
100
AcDbLine
10
54.600000000000009
20
153.5172919566435
30
0
11
40.399999999999991
21
139.31729195664354
31
0
0
LINE
5
228
100
AcDbEntity
8
0
100
AcDbLine
10
74.600000000000023
20
135.89229195664348
30
0
11
58.40000000000002
21
123.69229195664349
31
0
0
LINE
5
229
100
AcDbEntity
8
0
100
AcDbLine
10
93.59999999999998
20
140.31729195664352
30
0
11
77.399999999999977
21
140.31729195664352
31
0
0
LINE
5
230
100
AcDbEntity
8
0
100
AcDbLine
10
59.399999999999984
20
155.8922919566435
30
0
11
73.599999999999966
21
141.69229195664349
31
0
0
LINE
5
231
100
AcDbEntity
8
0
100
AcDbLine
10
54.600000000000009
20
134.51729195664348
30
0
11
54.600000000000009
21
120.31729195664352
31
0
0
LINE
5
232
100
AcDbEntity
8
0
100
AcDbLine
10
97.40000000000002
20
132.14229195664359
30
0
11
111.59999999999998
21
132.14229195664359
31
0
0
LINE
5
233
100
AcDbEntity
8
0
100
AcDbLine
10
87.732280910153534
20
82.339363003186961
30
0
11
90.8898732604043
21
94.123658083913554
31
0
0
LINE
5
234
100
AcDbEntity
8
0
100
AcDbLine
10
78.399999999999949
20
153.5172919566435
30
0
11
92.599999999999966
21
153.5172919566435
31
0
0
LINE
5
235
100
AcDbEntity
8
0
100
AcDbLine
10
88.439387691340059
20
81.114618131795297
30
0
11
92.114618131795879
21
94.830764865100079
31
0
0
LINE
5
236
100
AcDbEntity
8
0
100
AcDbLine
10
92.599999999999966
20
139.31729195664349
30
0
11
78.399999999999977
21
139.31729195664349
31
0
0
LINE
5
237
100
AcDbEntity
8
0
100
AcDbLine
10
54.600000000000009
20
101.31729195664352
30
0
11
40.399999999999999
21
101.31729195664352
31
0
0
LINE
5
238
100
AcDbEntity
8
0
100
AcDbLine
10
93.59999999999998
20
114.51729195664349
30
0
11
93.59999999999998
21
102.31729195664346
31
0
0
LINE
5
239
100
AcDbEntity
8
0
100
AcDbLine
10
111.59999999999998
20
117.9422919566436
30
0
11
97.40000000000002
21
117.9422919566436
31
0
0
LINE
5
240
100
AcDbEntity
8
0
100
AcDbLine
10
55.600000000000023
20
114.51729195664349
30
0
11
39.400000000000013
21
102.3172919566435
31
0
0
LINE
5
241
100
AcDbEntity
8
0
100
AcDbLine
10
77.399999999999977
20
114.51729195664349
30
0
11
93.59999999999998
21
102.31729195664346
31
0
0
LINE
5
242
100
AcDbEntity
8
0
100
AcDbLine
10
55.59999999999998
20
152.5172919566435
30
0
11
39.39999999999997
21
140.31729195664352
31
0
0
LWPOLYLINE
5
243
100
AcDbEntity
8
0
100
AcDbPolyline
90
3
70
1
43
0.0
10
77.399999999999977
20
133.51729195664348
10
93.59999999999998
20
121.31729195664349
10
93.59999999999998
20
133.5172919566435
0
LINE
5
244
100
AcDbEntity
8
0
100
AcDbLine
10
93.59999999999998
20
121.31729195664349
30
0
11
77.399999999999977
21
121.31729195664349
31
0
0
LINE
5
245
100
AcDbEntity
8
0
100
AcDbLine
10
39.399999999999999
20
133.5172919566435
30
0
11
55.600000000000016
21
133.5172919566435
31
0
0
LWPOLYLINE
5
246
100
AcDbEntity
8
0
100
AcDbPolyline
90
4
70
1
43
0.0
10
84.09999999999998
20
95.017561856947893
10
84.09999999999998
20
82.81756185694789
10
67.899999999999991
20
82.81756185694789
10
67.899999999999991
20
95.017561856947893
0
LINE
5
247
100
AcDbEntity
8
0
100
AcDbLine
10
35.599999999999966
20
129.7672919566435
30
0
11
35.599999999999966
21
115.56729195664353
31
0
0
LWPOLYLINE
5
248
100
AcDbEntity
8
0
100
AcDbPolyline
90
3
70
1
43
0.0
10
126.85231705256777
20
80.389130735859609
10
107.45475631882871
20
75.1915700021205
10
119.75231705256788
20
68.091570002120648
0
LWPOLYLINE
5
249
100
AcDbEntity
8
0
100
AcDbPolyline
90
3
70
1
43
0.0
10
16.59999999999998
20
115.56729195664349
10
2.3999999999999799
20
115.56729195664349
10
2.399999999999979
20
129.7672919566435
0
LWPOLYLINE
5
250
100
AcDbEntity
8
0
100
AcDbPolyline
90
4
70
1
43
0.0
10
111.59999999999998
20
98.942291956643572
10
97.399999999999963
20
98.942291956643572
10
97.399999999999963
20
113.14229195664356
10
111.59999999999999
20
113.14229195664356
0
LWPOLYLINE
5
251
100
AcDbEntity
8
0
100
AcDbPolyline
90
3
70
1
43
0.0
10
17.600000000000001
20
128.7672919566435
10
17.600000000000001
20
116.56729195664352
10
1.4000000000000012
20
116.56729195664352
0
CIRCLE
5
252
100
AcDbEntity
8
0
100
AcDbCircle
10
18.999999999999982
20
132.16729195664351
30
0
40
2.5000000000000027
210
0
220
0
230
1
0
LWPOLYLINE
5
253
100
AcDbEntity
8
0
100
AcDbPolyline
90
4
70
1
43
0.0
10
68.899999999999991
20
81.817561856947862
10
68.899999999999991
20
96.01756185694785
10
83.099999999999994
20
81.817561856947862
10
83.099999999999994
20
96.01756185694785
0
LWPOLYLINE
5
254
100
AcDbEntity
8
0
100
AcDbPolyline
90
3
70
1
43
0.0
10
36.599999999999973
20
128.76729195664353
10
20.399999999999988
20
116.56729195664354
10
20.399999999999988
20
128.76729195664353
0
LWPOLYLINE
5
255
100
AcDbEntity
8
0
100
AcDbPolyline
90
3
70
1
43
0.0
10
21.399999999999974
20
115.56729195664353
10
21.39999999999997
20
129.76729195664353
10
35.599999999999966
20
129.7672919566435
0
LINE
5
256
100
AcDbEntity
8
0
100
AcDbLine
10
36.599999999999973
20
128.76729195664353
30
0
11
36.599999999999987
21
116.56729195664354
31
0
0
LWPOLYLINE
5
257
100
AcDbEntity
8
0
100
AcDbPolyline
90
3
70
1
43
0.0
10
92.59999999999998
20
134.51729195664348
10
92.599999999999994
20
120.31729195664349
10
78.399999999999977
20
120.31729195664347
0
LWPOLYLINE
5
258
100
AcDbEntity
8
0
100
AcDbPolyline
90
3
70
1
43
0.0
10
96.400000000000006
20
112.14229195664356
10
112.59999999999998
20
99.942291956643572
10
96.400000000000006
20
99.942291956643572
0
LINE
5
259
100
AcDbEntity
8
0
100
AcDbLine
10
21.39999999999997
20
129.76729195664353
30
0
11
35.599999999999966
21
115.56729195664353
31
0
0
LINE
5
260
100
AcDbEntity
8
0
100
AcDbLine
10
111.59999999999999
20
113.14229195664356
30
0
11
97.399999999999963
21
98.942291956643572
31
0
0
LINE
5
261
100
AcDbEntity
8
0
100
AcDbLine
10
16.600000000000005
20
110.76729195664349
30
0
11
21.399999999999974
21
115.56729195664353
31
0
0
LINE
5
262
100
AcDbEntity
8
0
100
AcDbLine
10
96.400000000000006
20
112.14229195664356
30
0
11
112.59999999999998
21
112.14229195664358
31
0
0
LINE
5
263
100
AcDbEntity
8
0
100
AcDbLine
10
16.599999999999994
20
134.56729195664352
30
0
11
21.39999999999997
21
129.76729195664353
31
0
0
LINE
5
264
100
AcDbEntity
8
0
100
AcDbLine
10
16.599999999999987
20
129.7672919566435
30
0
11
2.3999999999999799
21
115.56729195664349
31
0
0
LWPOLYLINE
5
265
100
AcDbEntity
8
0
100
AcDbPolyline
90
4
70
1
43
0.0
10
113.18873091504429
20
87.123105332075212
10
121.11834245635228
20
68.457595405905067
10
127.2183424563523
20
79.023105332075176
10
107.08873091504438
20
76.557595405905033
0
LINE
5
266
100
AcDbEntity
8
0
100
AcDbLine
10
1.400000000000001
20
128.7672919566435
30
0
11
17.600000000000001
21
116.56729195664352
31
0
0
LINE
5
267
100
AcDbEntity
8
0
100
AcDbLine
10
78.400000000000006
20
134.51729195664348
30
0
11
92.599999999999994
21
120.31729195664349
31
0
0
LINE
5
268
100
AcDbEntity
8
0
100
AcDbLine
10
16.599999999999987
20
129.7672919566435
30
0
11
16.59999999999998
21
115.56729195664349
31
0
0
LINE
5
269
100
AcDbEntity
8
0
100
AcDbLine
10
112.59999999999998
20
112.14229195664358
30
0
11
96.400000000000006
21
99.942291956643572
31
0
0
LINE
5
270
100
AcDbEntity
8
0
100
AcDbLine
10
2.399999999999979
20
129.7672919566435
30
0
11
16.599999999999987
21
129.7672919566435
31
0
0
LINE
5
271
100
AcDbEntity
8
0
100
AcDbLine
10
36.599999999999987
20
116.56729195664354
30
0
11
20.399999999999988
21
116.56729195664354
31
0
0
LINE
5
272
100
AcDbEntity
8
0
100
AcDbLine
10
112.59999999999998
20
112.14229195664358
30
0
11
112.59999999999998
21
99.942291956643572
31
0
0
LINE
5
273
100
AcDbEntity
8
0
100
AcDbLine
10
67.899999999999991
20
95.017561856947893
30
0
11
84.09999999999998
21
82.81756185694789
31
0
0
LINE
5
274
100
AcDbEntity
8
0
100
AcDbLine
10
83.099999999999994
20
81.817561856947862
30
0
11
68.899999999999991
21
81.817561856947862
31
0
0
LINE
5
275
100
AcDbEntity
8
0
100
AcDbLine
10
77.399999999999977
20
121.31729195664349
30
0
11
77.399999999999977
21
133.51729195664348
31
0
0
LINE
5
276
100
AcDbEntity
8
0
100
AcDbLine
10
114.55475631882869
20
87.489130735859518
30
0
11
119.75231705256788
21
68.091570002120648
31
0
0
LINE
5
277
100
AcDbEntity
8
0
100
AcDbLine
10
114.55475631882869
20
87.489130735859518
30
0
11
126.85231705256777
21
80.389130735859609
31
0
0
LINE
5
278
100
AcDbEntity
8
0
100
AcDbLine
10
68.899999999999991
20
96.01756185694785
30
0
11
83.099999999999994
21
96.01756185694785
31
0
0
LINE
5
279
100
AcDbEntity
8
0
100
AcDbLine
10
107.45475631882871
20
75.1915700021205
30
0
11
114.55475631882869
21
87.489130735859518
31
0
0
LINE
5
280
100
AcDbEntity
8
0
100
AcDbLine
10
84.09999999999998
20
95.017561856947893
30
0
11
67.899999999999991
21
82.81756185694789
31
0
0
LINE
5
281
100
AcDbEntity
8
0
100
AcDbLine
10
55.600000000000016
20
133.5172919566435
30
0
11
39.399999999999999
21
121.31729195664352
31
0
0
LINE
5
282
100
AcDbEntity
8
0
100
AcDbLine
10
1.400000000000001
20
128.7672919566435
30
0
11
17.600000000000001
21
128.7672919566435
31
0
0
LINE
5
283
100
AcDbEntity
8
0
100
AcDbLine
10
35.599999999999966
20
115.56729195664353
30
0
11
21.399999999999974
21
115.56729195664353
31
0
0
LINE
5
284
100
AcDbEntity
8
0
100
AcDbLine
10
121.11834245635228
20
68.457595405905067
30
0
11
107.08873091504438
21
76.557595405905033
31
0
0
LINE
5
285
100
AcDbEntity
8
0
100
AcDbLine
10
20.399999999999988
20
128.76729195664353
30
0
11
36.599999999999987
21
116.56729195664354
31
0
0
LINE
5
286
100
AcDbEntity
8
0
100
AcDbLine
10
78.400000000000006
20
134.51729195664348
30
0
11
92.59999999999998
21
134.51729195664348
31
0
0
LINE
5
287
100
AcDbEntity
8
0
100
AcDbLine
10
1.4000000000000012
20
116.56729195664352
30
0
11
1.400000000000001
21
128.7672919566435
31
0
0
LINE
5
288
100
AcDbEntity
8
0
100
AcDbLine
10
97.399999999999963
20
113.14229195664356
30
0
11
111.59999999999998
21
98.942291956643572
31
0
0
LINE
5
289
100
AcDbEntity
8
0
100
AcDbLine
10
113.18873091504429
20
87.123105332075212
30
0
11
127.2183424563523
21
79.023105332075176
31
0
0
LINE
5
290
100
AcDbEntity
8
0
100
AcDbLine
10
93.59999999999998
20
133.5172919566435
30
0
11
77.399999999999977
21
121.31729195664349
31
0
0
LINE
5
291
100
AcDbEntity
8
0
100
AcDbLine
10
78.399999999999977
20
120.31729195664347
30
0
11
78.400000000000006
21
134.51729195664348
31
0
0
LINE
5
292
100
AcDbEntity
8
0
100
AcDbLine
10
66.499999999999972
20
158.29229195664345
30
0
11
66.499999999999972
21
148.79229195664348
31
0
0
LINE
5
293
100
AcDbEntity
8
0
100
AcDbLine
10
66.499999999999986
20
129.79229195664345
30
0
11
66.499999999999972
21
110.79229195664347
31
0
0
LINE
5
294
100
AcDbEntity
8
0
100
AcDbLine
10
85.499999999999972
20
155.91729195664342
30
0
11
85.499999999999972
21
146.41729195664345
31
0
0
LINE
5
295
100
AcDbEntity
8
0
100
AcDbLine
10
66.499999999999972
20
148.79229195664348
30
0
11
66.499999999999986
21
129.79229195664345
31
0
0
LINE
5
296
100
AcDbEntity
8
0
100
AcDbLine
10
9.499999999999984
20
122.66729195664351
30
0
11
9.499999999999984
21
103.66729195664348
31
0
0
LINE
5
297
100
AcDbEntity
8
0
100
AcDbLine
10
47.499999999999993
20
155.91729195664342
30
0
11
47.499999999999993
21
146.41729195664345
31
0
0
LINE
5
298
100
AcDbEntity
8
0
100
AcDbLine
10
47.5
20
127.41729195664347
30
0
11
47.499999999999993
21
108.41729195664345
31
0
0
LINE
5
299
100
AcDbEntity
8
0
100
AcDbLine
10
9.4999999999999893
20
151.16729195664348
30
0
11
9.499999999999984
21
141.66729195664348
31
0
0
LINE
5
300
100
AcDbEntity
8
0
100
AcDbLine
10
9.499999999999984
20
141.66729195664348
30
0
11
9.499999999999984
21
122.66729195664351
31
0
0
LINE
5
301
100
AcDbEntity
8
0
100
AcDbLine
10
28.499999999999972
20
122.66729195664347
30
0
11
28.499999999999961
21
103.66729195664347
31
0
0
LINE
5
302
100
AcDbEntity
8
0
100
AcDbLine
10
9.4999999999999893
20
151.16729195664348
30
0
11
28.499999999999996
21
151.16729195664348
31
0
0
LINE
5
303
100
AcDbEntity
8
0
100
AcDbLine
10
28.499999999999996
20
151.16729195664348
30
0
11
28.499999999999986
21
141.66729195664348
31
0
0
LINE
5
304
100
AcDbEntity
8
0
100
AcDbLine
10
47.499999999999993
20
146.41729195664345
30
0
11
47.5
21
127.41729195664347
31
0
0
LINE
5
305
100
AcDbEntity
8
0
100
AcDbLine
10
28.499999999999986
20
141.66729195664348
30
0
11
28.499999999999972
21
122.66729195664347
31
0
0
LWPOLYLINE
5
306
100
AcDbEntity
8
0
100
AcDbPolyline
90
4
70
1
43
0.0
10
73.59999999999998
20
117.89229195664348
10
73.59999999999998
20
103.69229195664349
10
59.399999999999984
20
103.69229195664352
10
59.399999999999977
20
117.8922919566435
0
LWPOLYLINE
5
307
100
AcDbEntity
8
0
100
AcDbPolyline
90
3
70
1
43
0.0
10
35.599999999999966
20
110.76729195664353
10
21.399999999999952
20
96.56729195664353
10
35.599999999999959
20
96.567291956643544
0
LWPOLYLINE
5
308
100
AcDbEntity
8
0
100
AcDbPolyline
90
3
70
1
43
0.0
10
17.600000000000001
20
147.7672919566435
10
1.4000000000000035
20
135.56729195664354
10
17.600000000000001
20
135.56729195664354
0
LINE
5
309
100
AcDbEntity
8
0
100
AcDbLine
10
16.600000000000001
20
148.7672919566435
30
0
11
2.3999999999999955
21
134.56729195664352
31
0
0
LWPOLYLINE
5
310
100
AcDbEntity
8
0
100
AcDbPolyline
90
4
70
1
43
0.0
10
96.399999999999977
20
137.9422919566436
10
96.399999999999977
20
150.14229195664359
10
112.59999999999994
20
150.14229195664359
10
112.59999999999994
20
137.9422919566436
0
LWPOLYLINE
5
311
100
AcDbEntity
8
0
100
AcDbPolyline
90
3
70
1
43
0.0
10
2.3999999999999941
20
148.7672919566435
10
16.599999999999994
20
134.56729195664352
10
16.600000000000001
20
148.7672919566435
0
LINE
5
312
100
AcDbEntity
8
0
100
AcDbLine
10
73.59999999999998
20
117.89229195664348
30
0
11
59.399999999999984
21
103.69229195664352
31
0
0
LWPOLYLINE
5
313
100
AcDbEntity
8
0
100
AcDbPolyline
90
4
70
1
43
0.0
10
36.599999999999959
20
97.567291956643516
10
20.399999999999963
20
97.567291956643516
10
36.599999999999959
20
109.76729195664353
10
20.399999999999963
20
109.76729195664353
0
LINE
5
314
100
AcDbEntity
8
0
100
AcDbLine
10
2.3999999999999955
20
134.56729195664352
30
0
11
2.3999999999999941
21
148.7672919566435
31
0
0
LWPOLYLINE
5
315
100
AcDbEntity
8
0
100
AcDbPolyline
90
3
70
1
43
0.0
10
1.3999999999999924
20
109.7672919566435
10
17.599999999999994
20
109.7672919566435
10
17.599999999999987
20
97.567291956643516
0
LINE
5
316
100
AcDbEntity
8
0
100
AcDbLine
10
16.599999999999994
20
134.56729195664352
30
0
11
2.3999999999999955
21
134.56729195664352
31
0
0
LWPOLYLINE
5
317
100
AcDbEntity
8
0
100
AcDbPolyline
90
4
70
1
43
0.0
10
111.59999999999997
20
136.94229195664363
10
97.399999999999963
20
136.9422919566436
10
111.59999999999997
20
151.14229195664362
10
97.399999999999963
20
151.14229195664362
0
LINE
5
318
100
AcDbEntity
8
0
100
AcDbLine
10
21.399999999999952
20
110.76729195664356
30
0
11
35.599999999999959
21
96.567291956643544
31
0
0
LINE
5
319
100
AcDbEntity
8
0
100
AcDbLine
10
111.59999999999997
20
151.14229195664362
30
0
11
111.59999999999997
21
136.94229195664363
31
0
0
LINE
5
320
100
AcDbEntity
8
0
100
AcDbLine
10
36.599999999999959
20
109.76729195664353
30
0
11
36.599999999999959
21
97.567291956643516
31
0
0
LINE
5
321
100
AcDbEntity
8
0
100
AcDbLine
10
96.399999999999977
20
150.14229195664359
30
0
11
112.59999999999994
21
137.9422919566436
31
0
0
LINE
5
322
100
AcDbEntity
8
0
100
AcDbLine
10
58.399999999999999
20
104.69229195664349
30
0
11
58.399999999999999
21
116.89229195664348
31
0
0
LINE
5
323
100
AcDbEntity
8
0
100
AcDbLine
10
17.599999999999994
20
109.7672919566435
30
0
11
1.3999999999999924
21
97.567291956643516
31
0
0
LINE
5
324
100
AcDbEntity
8
0
100
AcDbLine
10
97.399999999999963
20
136.9422919566436
30
0
11
97.399999999999963
21
151.14229195664362
31
0
0
LINE
5
325
100
AcDbEntity
8
0
100
AcDbLine
10
1.4000000000000035
20
135.56729195664354
30
0
11
1.4000000000000037
21
147.76729195664353
31
0
0
LINE
5
326
100
AcDbEntity
8
0
100
AcDbLine
10
1.4000000000000037
20
147.76729195664353
30
0
11
17.600000000000001
21
147.7672919566435
31
0
0
LINE
5
327
100
AcDbEntity
8
0
100
AcDbLine
10
21.399999999999952
20
110.76729195664356
30
0
11
35.599999999999966
21
110.76729195664353
31
0
0
LINE
5
328
100
AcDbEntity
8
0
100
AcDbLine
10
1.4000000000000037
20
147.76729195664353
30
0
11
17.600000000000001
21
135.56729195664354
31
0
0
LWPOLYLINE
5
329
100
AcDbEntity
8
0
100
AcDbPolyline
90
3
70
1
43
0.0
10
2.3999999999999955
20
110.76729195664349
10
16.599999999999994
20
96.567291956643473
10
2.3999999999999955
20
96.567291956643516
0
LINE
5
330
100
AcDbEntity
8
0
100
AcDbLine
10
20.399999999999963
20
97.567291956643516
30
0
11
20.399999999999963
21
109.76729195664353
31
0
0
LINE
5
331
100
AcDbEntity
8
0
100
AcDbLine
10
21.399999999999952
20
96.56729195664353
30
0
11
21.399999999999952
21
110.76729195664356
31
0
0
LINE
5
332
100
AcDbEntity
8
0
100
AcDbLine
10
112.59999999999994
20
150.14229195664359
30
0
11
96.399999999999977
21
137.9422919566436
31
0
0
LINE
5
333
100
AcDbEntity
8
0
100
AcDbLine
10
104.49999999999996
20
144.0422919566436
30
0
11
104.50000000000001
21
125.04229195664358
31
0
0
LWPOLYLINE
5
334
100
AcDbEntity
8
0
100
AcDbPolyline
90
3
70
1
43
0.0
10
21.399999999999984
20
134.56729195664354
10
21.399999999999977
20
148.76729195664353
10
35.599999999999973
20
134.56729195664354
0
LINE
5
335
100
AcDbEntity
8
0
100
AcDbLine
10
16.600000000000005
20
110.76729195664349
30
0
11
16.599999999999994
21
96.567291956643473
31
0
0
LINE
5
336
100
AcDbEntity
8
0
100
AcDbLine
10
104.49999999999996
20
153.54229195664354
30
0
11
104.49999999999996
21
144.0422919566436
31
0
0
LINE
5
337
100
AcDbEntity
8
0
100
AcDbLine
10
76.000000000000071
20
98.417561856947856
30
0
11
76.000000000000071
21
88.917561856947856
31
0
0
LINE
5
338
100
AcDbEntity
8
0
100
AcDbLine
10
99.593857206694182
20
95.311371627965997
30
0
11
97.135076278220268
21
86.135076278219827
31
0
0
LWPOLYLINE
5
339
100
AcDbEntity
8
0
100
AcDbPolyline
90
4
70
1
43
0.0
10
20.399999999999977
20
135.56729195664357
10
20.399999999999974
20
147.76729195664356
10
36.599999999999973
20
147.76729195664356
10
36.599999999999973
20
135.56729195664357
0
LINE
5
340
100
AcDbEntity
8
0
100
AcDbLine
10
104.50000000000001
20
125.04229195664358
30
0
11
104.49999999999996
21
106.04229195664358
31
0
0
LINE
5
341
100
AcDbEntity
8
0
100
AcDbLine
10
16.600000000000005
20
110.76729195664349
30
0
11
2.3999999999999955
21
96.567291956643516
31
0
0
LINE
5
342
100
AcDbEntity
8
0
100
AcDbLine
10
1.3999999999999924
20
97.567291956643516
30
0
11
1.3999999999999924
21
109.7672919566435
31
0
0
LINE
5
343
100
AcDbEntity
8
0
100
AcDbLine
10
85.499999999999972
20
127.41729195664347
30
0
11
85.499999999999972
21
108.41729195664345
31
0
0
LINE
5
344
100
AcDbEntity
8
0
100
AcDbLine
10
121.90353668569834
20
86.017591704942305
30
0
11
117.15353668569833
21
77.790350368990119
31
0
0
LINE
5
345
100
AcDbEntity
8
0
100
AcDbLine
10
85.499999999999972
20
146.41729195664345
30
0
11
85.499999999999972
21
127.41729195664347
31
0
0
LINE
5
346
100
AcDbEntity
8
0
100
AcDbLine
10
35.599999999999973
20
148.76729195664356
30
0
11
21.399999999999984
21
134.56729195664354
31
0
0
LINE
5
347
100
AcDbEntity
8
0
100
AcDbLine
10
21.399999999999977
20
148.76729195664353
30
0
11
35.599999999999973
21
148.76729195664356
31
0
0
LINE
5
348
100
AcDbEntity
8
0
100
AcDbLine
10
17.599999999999987
20
97.567291956643516
30
0
11
1.3999999999999924
21
97.567291956643516
31
0
0
LINE
5
349
100
AcDbEntity
8
0
100
AcDbLine
10
2.3999999999999955
20
110.76729195664349
30
0
11
16.600000000000005
21
110.76729195664349
31
0
0
LINE
5
350
100
AcDbEntity
8
0
100
AcDbLine
10
36.599999999999973
20
147.76729195664356
30
0
11
20.399999999999977
21
135.56729195664357
31
0
0
LINE
5
351
100
AcDbEntity
8
0
100
AcDbLine
10
20.399999999999974
20
147.76729195664356
30
0
11
36.599999999999973
21
135.56729195664357
31
0
0
LINE
5
352
100
AcDbEntity
8
0
100
AcDbLine
10
35.599999999999973
20
148.76729195664356
30
0
11
35.599999999999973
21
134.56729195664354
31
0
0
LINE
5
353
100
AcDbEntity
8
0
100
AcDbLine
10
57
20
98.917291956643837
30
0
11
66.500000000000071
21
98.917291956644078
31
0
0
LINE
5
354
100
AcDbEntity
8
0
100
AcDbLine
10
66.500000000000071
20
98.917291956644078
30
0
11
66.500000000000071
21
98.417561856947856
31
0
0
LINE
5
355
100
AcDbEntity
8
0
100
AcDbLine
10
38.000000000000036
20
94.167291956643709
30
0
11
0
21
94.16729195664351
31
0
0
LINE
5
356
100
AcDbEntity
8
0
100
AcDbLine
10
76.000000000000071
20
98.917291956643837
30
0
11
76.000000000000071
21
98.417561856947856
31
0
0
LINE
5
357
100
AcDbEntity
8
0
100
AcDbLine
10
59.399999999999977
20
117.8922919566435
30
0
11
73.59999999999998
21
103.69229195664349
31
0
0
LINE
5
358
100
AcDbEntity
8
0
100
AcDbLine
10
74.59999999999998
20
116.8922919566435
30
0
11
74.59999999999998
21
104.69229195664349
31
0
0
CIRCLE
5
359
100
AcDbEntity
8
0
100
AcDbCircle
10
100.10191614635229
20
7.9123828288985152
30
0
40
1.0999999999999943
210
0
220
0
230
1
0
CIRCLE
5
360
100
AcDbEntity
8
0
100
AcDbCircle
10
118.10191614635229
20
7.9123828288985152
30
0
40
1.0999999999999943
210
0
220
0
230
1
0
CIRCLE
5
361
100
AcDbEntity
8
0
100
AcDbCircle
10
79.101916146352323
20
15.162382828898497
30
0
40
2.1000000000000085
210
0
220
0
230
1
0
CIRCLE
5
362
100
AcDbEntity
8
0
100
AcDbCircle
10
95.28823310557982
20
-28.424997629064755
30
0
40
2.1000000000000045
210
0
220
0
230
1
0
CIRCLE
5
363
100
AcDbEntity
8
0
100
AcDbCircle
10
112.56091330639562
20
-35.51063284668394
30
0
40
1.0999999999999943
210
0
220
0
230
1
0
CIRCLE
5
364
100
AcDbEntity
8
0
100
AcDbCircle
10
22.601916146352359
20
16.912382828898529
30
0
40
2.1000000000000005
210
0
220
0
230
1
0
CIRCLE
5
365
100
AcDbEntity
8
0
100
AcDbCircle
10
21.601916146352362
20
-14.087617171101495
30
0
40
2.0999999999999996
210
0
220
0
230
1
0
CIRCLE
5
366
100
AcDbEntity
8
0
100
AcDbCircle
10
12.601916146352377
20
14.41238282889854
30
0
40
0.50000000000000044
210
0
220
0
230
1
0
CIRCLE
5
367
100
AcDbEntity
8
0
100
AcDbCircle
10
12.601916146352377
20
-4.5876171711014617
30
0
40
0.50000000000000044
210
0
220
0
230
1
0
CIRCLE
5
368
100
AcDbEntity
8
0
100
AcDbCircle
10
12.601916146352377
20
-23.587617171101463
30
0
40
0.50000000000000044
210
0
220
0
230
1
0
CIRCLE
5
369
100
AcDbEntity
8
0
100
AcDbCircle
10
31.601916146352373
20
26.412382828898483
30
0
40
0.49999999999999822
210
0
220
0
230
1
0
CIRCLE
5
370
100
AcDbEntity
8
0
100
AcDbCircle
10
50.601916146352309
20
32.412382828898515
30
0
40
0.49999999999999822
210
0
220
0
230
1
0
CIRCLE
5
371
100
AcDbEntity
8
0
100
AcDbCircle
10
69.601916146352295
20
25.912382828898515
30
0
40
0.49999999999999822
210
0
220
0
230
1
0
CIRCLE
5
372
100
AcDbEntity
8
0
100
AcDbCircle
10
88.601916146352295
20
23.412382828898508
30
0
40
0.50000000000000711
210
0
220
0
230
1
0
CIRCLE
5
373
100
AcDbEntity
8
0
100
AcDbCircle
10
31.601916146352373
20
7.4123828288984832
30
0
40
0.49999999999999822
210
0
220
0
230
1
0
CIRCLE
5
374
100
AcDbEntity
8
0
100
AcDbCircle
10
31.601916146352373
20
-11.587617171101519
30
0
40
0.49999999999999822
210
0
220
0
230
1
0
CIRCLE
5
375
100
AcDbEntity
8
0
100
AcDbCircle
10
50.601916146352309
20
13.412382828898515
30
0
40
0.49999999999999822
210
0
220
0
230
1
0
CIRCLE
5
376
100
AcDbEntity
8
0
100
AcDbCircle
10
50.601916146352309
20
-5.5876171711014866
30
0
40
0.49999999999999822
210
0
220
0
230
1
0
CIRCLE
5
377
100
AcDbEntity
8
0
100
AcDbCircle
10
69.601916146352295
20
6.9123828288985152
30
0
40
0.49999999999999822
210
0
220
0
230
1
0
CIRCLE
5
378
100
AcDbEntity
8
0
100
AcDbCircle
10
69.601916146352295
20
-12.087617171101485
30
0
40
0.49999999999999822
210
0
220
0
230
1
0
CIRCLE
5
379
100
AcDbEntity
8
0
100
AcDbCircle
10
88.601916146352295
20
4.4123828288985063
30
0
40
0.50000000000000711
210
0
220
0
230
1
0
CIRCLE
5
380
100
AcDbEntity
8
0
100
AcDbCircle
10
88.601916146352295
20
-14.587617171101495
30
0
40
0.50000000000000711
210
0
220
0
230
1
0
CIRCLE
5
381
100
AcDbEntity
8
0
100
AcDbCircle
10
109.10191614635229
20
21.912382828898515
30
0
40
0.50000000000000711
210
0
220
0
230
1
0
CIRCLE
5
382
100
AcDbEntity
8
0
100
AcDbCircle
10
109.10191614635231
20
-11.587617171101483
30
0
40
0.50000000000000711
210
0
220
0
230
1
0
CIRCLE
5
383
100
AcDbEntity
8
0
100
AcDbCircle
10
60.101916146352323
20
-31.71261717110152
30
0
40
0.49999999999999822
210
0
220
0
230
1
0
CIRCLE
5
384
100
AcDbEntity
8
0
100
AcDbCircle
10
81.236992424572378
20
-34.495102749829272
30
0
40
0.50000000000000711
210
0
220
0
230
1
0
CIRCLE
5
385
100
AcDbEntity
8
0
100
AcDbCircle
10
100.93174818179673
20
-42.652937692097204
30
0
40
0.499999999999995
210
0
220
0
230
1
0
ENDSEC
0
SECTION
2
OBJECTS
0
DICTIONARY
5
C
100
AcDbDictionary
3
ACAD_GROUP
350
D
3
ACAD_MLINESTYLE
350
17
0
DICTIONARY
5
D
100
AcDbDictionary
0
DICTIONARY
5
1A
330
C
100
AcDbDictionary
0
DICTIONARY
5
17
100
AcDbDictionary
0
ENDSEC
0
EOF
